<!DOCTYPE svg PUBLIC "-//W3C//DTD SVG 20010904//EN" "http://www.w3.org/TR/2001/REC-SVG-20010904/DTD/svg10.dtd">
<!-- Copyright © 2016 Spreza Technologies, Inc. -->
<svg version="1.0" xmlns="http://www.w3.org/2000/svg" width="644px" height="644px" viewBox="0 0 6440 6440" preserveAspectRatio="xMidYMid meet">
    <g id="spreza-outline" fill="#FFFFFF" stroke="none">
        <path d="M3223 4809 c-124 -24 -227 -127 -329 -327 -18 -37 -34 -74 -34 -82 0 -9 -4 -20 -9 -25 -16 -18 -77 -220 -101 -339 l-12 -58 -39 5 c-60 8 -117 42 -194 116 -70 67 -148 131 -160 131 -4 0 -25 13 -48 28 -40 27 -308 162 -322 162 -3 0 -31 11 -61 25 -30 14 -60 25 -67 25 -7 0 -17 4 -22 9 -13 12 -244 87 -325 106 -89 20 -179 19 -300 -5 -132 -26 -183 -25 -277 5 -102 32 -143 32 -182 0 -41 -36 -58 -72 -71 -163 -30 -197 41 -438 201 -681 86 -129 653 -673 1616 -1549 l221 -201 7 -53 c15 -119 56 -187 204 -340 102 -106 203 -183 270 -206 45 -16 167 -14 214 2 62 22 140 83 239 184 160 166 218 261 218 362 0 33 8 44 73 106 40 38 93 87 117 108 25 21 75 66 111 100 116 108 283 261 329 302 25 21 83 75 130 120 47 45 105 99 130 120 25 21 92 84 150 140 58 56 125 119 150 140 25 21 121 113 213 204 93 91 173 167 179 169 32 11 219 220 274 306 54 84 118 212 142 287 12 35 26 79 33 98 6 19 13 89 16 155 7 155 -11 234 -62 283 -43 40 -80 41 -188 7 -94 -30 -154 -31 -278 -5 -105 22 -202 25 -281 9 -65 -13 -329 -98 -343 -110 -5 -5 -15 -9 -22 -9 -7 0 -37 -11 -67 -25 -30 -14 -58 -25 -62 -25 -16 0 -332 -161 -344 -175 -7 -8 -18 -15 -25 -15 -6 0 -20 -9 -30 -20 -10 -11 -23 -20 -29 -20 -6 0 -45 -34 -86 -76 -75 -75 -158 -126 -226 -140 l-32 -6 -17 78 c-9 44 -24 104 -32 134 -8 30 -18 67 -20 83 -3 15 -9 30 -14 33 -5 3 -9 16 -9 29 0 13 -4 26 -9 29 -5 3 -12 18 -15 33 -10 39 -97 214 -118 237 -10 11 -18 25 -18 30 -1 6 -29 39 -63 73 -53 53 -71 65 -122 78 -64 16 -107 17 -172 4z m168 -206 c59 -66 117 -160 139 -228 7 -22 16 -44 21 -49 5 -6 9 -20 9 -32 0 -13 4 -25 9 -28 5 -3 11 -18 14 -33 3 -16 11 -46 17 -68 25 -87 55 -232 71 -346 13 -92 7 -497 -10 -719 -5 -63 -17 -246 -26 -407 -19 -311 -16 -361 30 -568 18 -85 20 -192 3 -232 -39 -92 -245 -295 -336 -332 -61 -25 -127 8 -251 124 -63 59 -151 168 -169 208 -19 44 -14 151 13 287 33 170 33 322 -4 803 -50 644 -50 726 0 977 57 287 146 505 250 612 l57 58 69 0 c63 0 72 -3 94 -27z m-1927 -192 c242 -73 414 -139 596 -230 155 -77 228 -123 286 -177 42 -39 51 -62 123 -299 44 -143 135 -423 142 -437 5 -10 9 -27 9 -37 0 -11 5 -23 10 -26 6 -3 10 -15 10 -26 0 -10 4 -27 10 -37 5 -9 30 -78 54 -152 43 -132 45 -139 57 -340 15 -259 4 -430 -28 -430 -5 0 -24 15 -43 33 -19 18 -51 45 -70 61 -19 15 -73 65 -120 110 -47 44 -101 94 -120 110 -19 15 -73 65 -120 110 -47 44 -101 94 -120 110 -19 15 -78 69 -130 120 -52 50 -115 109 -140 130 -25 21 -92 84 -150 140 -58 56 -140 132 -183 170 -173 152 -475 462 -519 531 -122 189 -168 321 -168 483 0 92 -2 91 76 67 62 -19 184 -19 277 -1 130 27 212 32 261 17z m3896 -11 c112 -24 214 -26 294 -5 32 8 62 12 68 9 18 -11 2 -200 -22 -274 -34 -102 -84 -199 -161 -317 -32 -46 -299 -317 -449 -453 -57 -52 -152 -140 -210 -196 -58 -56 -125 -119 -150 -140 -24 -21 -85 -78 -135 -125 -49 -48 -108 -102 -130 -120 -22 -19 -78 -71 -125 -115 -47 -45 -101 -95 -120 -110 -19 -16 -71 -63 -115 -105 -44 -42 -98 -92 -120 -110 -22 -19 -60 -53 -85 -76 -25 -24 -51 -43 -57 -43 -23 0 -28 55 -27 327 1 256 9 340 34 378 3 6 44 125 89 265 46 140 87 263 92 272 5 10 9 25 9 33 0 8 4 23 9 33 8 14 48 140 82 257 28 98 62 182 82 203 46 50 176 131 317 198 161 77 172 81 280 122 293 111 387 127 550 92z m-2663 -612 c12 -16 4 -138 -8 -138 -10 0 -18 18 -38 81 -17 54 -14 69 13 69 13 0 28 -6 33 -12z m1243 1 c0 -30 -46 -159 -57 -159 -7 0 -14 22 -18 53 -10 77 -4 100 25 108 38 11 50 10 50 -2z"/>
    </g>
</svg>